<?xml version="1.0" standalone="no"?>
<!DOCTYPE svg PUBLIC "-//W3C//DTD SVG 20010904//EN"
 "http://www.w3.org/TR/2001/REC-SVG-20010904/DTD/svg10.dtd">
<svg version="1.0" xmlns="http://www.w3.org/2000/svg"
 width="1080.000000pt" height="1080.000000pt" viewBox="0 0 1080.000000 1080.000000"
 preserveAspectRatio="xMidYMid meet">

<g transform="translate(0.000000,1080.000000) scale(0.100000,-0.100000)"
fill="#000000" stroke="none">
<path d="M1230 5420 l0 -1070 770 0 770 0 0 240 0 240 -495 0 -495 0 0 830 0
830 -275 0 -275 0 0 -1070z"/>
<path d="M5259 5966 c-101 -22 -176 -61 -241 -129 l-58 -59 0 81 0 81 -240 0
-240 0 0 -795 0 -795 255 0 255 0 0 538 c0 503 2 540 19 578 26 56 75 92 146
105 108 20 204 -11 246 -78 l24 -38 3 -552 3 -553 260 0 260 0 -3 623 c-3 581
-5 625 -22 672 -41 107 -121 202 -217 258 -111 64 -311 92 -450 63z"/>
<path d="M6715 5970 c-381 -58 -608 -325 -631 -745 -11 -199 24 -395 97 -545
54 -110 160 -218 267 -274 195 -101 500 -123 711 -51 113 38 170 74 262 165
74 72 94 99 133 180 25 53 46 101 46 108 0 9 -63 12 -256 12 l-257 0 -34 -35
c-39 -40 -111 -65 -188 -65 -122 0 -238 108 -264 245 l-8 45 512 0 512 0 7 53
c15 130 -4 326 -43 440 -82 235 -245 386 -486 448 -92 23 -287 33 -380 19z
m246 -412 c19 -6 45 -19 60 -29 34 -24 75 -103 87 -166 l9 -53 -259 0 -260 0
7 43 c15 97 74 179 150 205 41 14 164 15 206 0z"/>
<path d="M2842 5318 c3 -583 5 -626 22 -673 58 -151 172 -255 336 -306 62 -20
96 -24 200 -23 183 1 277 37 373 144 l47 52 0 -81 0 -81 245 0 245 0 0 795 0
795 -255 0 -254 0 -3 -538 -3 -538 -25 -49 c-37 -70 -96 -100 -200 -99 -92 1
-147 26 -181 81 l-24 38 -3 553 -3 552 -260 0 -260 0 3 -622z"/>
<path d="M7463 5933 c2 -5 109 -178 236 -386 128 -208 231 -384 228 -390 -4
-10 -195 -328 -430 -714 l-57 -93 308 0 308 0 84 200 c47 110 87 200 90 200 3
-1 45 -90 94 -200 l88 -200 315 0 c249 0 313 3 307 13 -4 6 -115 185 -247 396
-131 211 -241 390 -244 397 -3 7 104 185 236 394 133 210 241 383 241 386 0 2
-134 3 -297 2 l-297 -3 -85 -187 c-47 -103 -88 -188 -91 -188 -3 0 -43 86 -89
190 l-84 190 -309 0 c-170 0 -307 -3 -305 -7z"/>
<path d="M9221 4833 c-88 -31 -161 -136 -161 -233 0 -132 118 -250 250 -250
60 0 130 30 175 75 188 188 -12 497 -264 408z"/>
</g>
</svg>
